<svg id="Layer_1" data-name="Layer 1" xmlns="http://www.w3.org/2000/svg" viewBox="0 0 250.23 132.98"><defs><style>.cls-1{fill:#fff;}.cls-2{fill:#33aad3;}</style></defs><path class="cls-1" d="M231.81,425.77A36.64,36.64,0,0,1,242,427.69a4.47,4.47,0,0,0,1.2.23,11.29,11.29,0,0,0,2.26-.68,3.63,3.63,0,0,1,1.28-.23c1.68,0,3.46,1.33,5.32,4a13.36,13.36,0,0,1,2.81,7.6,5.24,5.24,0,0,1-1.26,3.56,4,4,0,0,1-3.07,1.45,4.45,4.45,0,0,1-2.44-.61,41.9,41.9,0,0,1-4.14-3.57q-4.52-4.21-8.88-4.21a5.19,5.19,0,0,0-3.37,1,3.27,3.27,0,0,0-1.26,2.67c0,2.18,1.92,3.83,5.76,4.93a85.24,85.24,0,0,1,10,3.35q9.58,4.67,9.59,13.73A15.82,15.82,0,0,1,249.19,474q-6.69,5.19-17.49,5.2a48.77,48.77,0,0,1-10.16-1.15,24.27,24.27,0,0,1-7.71-2.69c-1.2-.8-2.29-2.55-3.25-5.25a23.2,23.2,0,0,1-1.45-7.88,4.42,4.42,0,0,1,.75-2.79,2.9,2.9,0,0,1,2.37-1.2,3.75,3.75,0,0,1,2.75,1.47,57.5,57.5,0,0,1,3.72,5.3,10.21,10.21,0,0,0,4.42,3.5,14.83,14.83,0,0,0,6.27,1.39,8.7,8.7,0,0,0,4.51-1,3.06,3.06,0,0,0,1.73-2.65,3.25,3.25,0,0,0-1.35-2.6,13.73,13.73,0,0,0-4.41-2,57.9,57.9,0,0,1-8.2-3.11,24.69,24.69,0,0,1-5.26-3.55q-6-5.26-6-12a14.63,14.63,0,0,1,1.54-6.46,16.17,16.17,0,0,1,4.37-5.43A23.15,23.15,0,0,1,231.81,425.77Z" transform="translate(-186.39 -402.04)"/><path class="cls-2" d="M247.61,448.46c4.83,0,7.24,1,7.24,3a2.24,2.24,0,0,1-.37,1.32,4.78,4.78,0,0,1-1.42,1.13,2.45,2.45,0,0,0-1.14,1.47,16.6,16.6,0,0,0-.25,3.66c0,1.08.2,1.74.6,2a2.17,2.17,0,0,0,1.06.28c.47,0,1.58.05,3.33.05a9.79,9.79,0,0,0,3-.26c.39-.17.58-.59.58-1.27a21.56,21.56,0,0,0-.28-4.27,2.35,2.35,0,0,0-1.08-1.65,5,5,0,0,1-1.35-1,1.65,1.65,0,0,1-.32-1.08,2.53,2.53,0,0,1,.71-1.73,3.75,3.75,0,0,1,1.88-1.05,26.3,26.3,0,0,1,6.05-.58,18.82,18.82,0,0,1,6.3.78c1.35.51,2,1.32,2,2.42a2.24,2.24,0,0,1-1.44,2.09,2.92,2.92,0,0,0-1.18.8,3.32,3.32,0,0,0-.44,1.42c-.07.39-.14,2.1-.24,5.15s-.14,5.46-.14,7.25a30.33,30.33,0,0,0,.35,6,2.12,2.12,0,0,0,.42.93,8.44,8.44,0,0,0,1.46.93,1.58,1.58,0,0,1,.88,1.48,2.71,2.71,0,0,1-2.1,2.56,20.57,20.57,0,0,1-6.8.8,17.12,17.12,0,0,1-6.1-.81A2.43,2.43,0,0,1,257,478a2.29,2.29,0,0,1,1.36-2.07,2.44,2.44,0,0,0,.92-.74,4.78,4.78,0,0,0,.48-1.36,23.89,23.89,0,0,0,.41-4.78c0-1-.14-1.58-.43-1.81a4.29,4.29,0,0,0-2.23-.35,17.92,17.92,0,0,0-5.29.47c-.31.12-.5.48-.58,1.09a23,23,0,0,0-.14,2.73,7.37,7.37,0,0,0,.74,3.8,4.17,4.17,0,0,0,1.21.95,2,2,0,0,1,1,1.84c0,1.08-.75,1.9-2.25,2.48a18.77,18.77,0,0,1-6.42.85,20.61,20.61,0,0,1-6.21-.78,3.79,3.79,0,0,1-1.63-1,2,2,0,0,1-.6-1.4,1.69,1.69,0,0,1,.38-1.18,5.85,5.85,0,0,1,1.62-1.07,2,2,0,0,0,.91-.83,5.23,5.23,0,0,0,.41-1.72A58.31,58.31,0,0,0,241,466c0-.54,0-1.19,0-1.93-.06-3.71-.09-5.82-.09-6.35a6,6,0,0,0-.33-2.63,4.48,4.48,0,0,0-1.89-1.4,1.57,1.57,0,0,1-1-1.46q0-2.36,4.54-3.25A27,27,0,0,1,247.61,448.46Z" transform="translate(-186.39 -402.04)"/><path class="cls-1" d="M225.36,535c-3.18,0-4.83-.78-5.56-2.4-.85-1.88.08-3.92,2.76-6.07a12.83,12.83,0,0,1,1.83-1.17c4.38-2.38,8.52-8.68,8.56-8.74l.06-.09c2.23-3.15,2.67-5.73,1.31-7.69a5.84,5.84,0,0,0-4.19-2.25c-11.26-1.31-24.08-10.43-24.62-10.82a49.36,49.36,0,0,1-19-36.9c-.11-1.65-.13-3.33-.08-5v-.23c0-.25,0-.49,0-.73a50.91,50.91,0,0,1,101.81,0c0,.12,0,.24,0,.37l0,.32c0,.8.84,19.91-17.34,48.93h0C253,531.13,234.52,534,232.77,534.21A46.05,46.05,0,0,1,225.36,535Zm11.75-15.61c-.45.68-5,7.47-10.32,10.35l-.39.22a50.76,50.76,0,0,0,5.59-.71l.18,0c.16,0,17.5-2.25,34.49-29.34h0c15.58-24.87,16.55-42.2,16.59-45.46l-.09-.15,0-1c0-.13,0-.26,0-.38a45.91,45.91,0,0,0-91.81,0c0,.19,0,.38,0,.57l0,.42V454c0,1.57,0,3.09.07,4.65v.19c0,.19.08,19.78,17,33,.05,0,12.24,8.7,22.21,9.85a10.85,10.85,0,0,1,7.71,4.36C239.94,508.17,241.78,512.8,237.11,519.41Z" transform="translate(-186.39 -402.04)"/><path class="cls-1" d="M320.36,425.3a17.77,17.77,0,0,1,4.88.92,1.86,1.86,0,0,0,.58.11,5.74,5.74,0,0,0,1.08-.32,1.84,1.84,0,0,1,.62-.11c.8,0,1.66.64,2.55,1.91a6.43,6.43,0,0,1,1.35,3.65,2.47,2.47,0,0,1-.61,1.71,1.89,1.89,0,0,1-1.47.7,2.16,2.16,0,0,1-1.17-.29,20.21,20.21,0,0,1-2-1.72,6.37,6.37,0,0,0-4.26-2,2.47,2.47,0,0,0-1.62.49,1.57,1.57,0,0,0-.61,1.28c0,1.05.92,1.84,2.77,2.37a42,42,0,0,1,4.79,1.6c3.07,1.5,4.6,3.69,4.6,6.6a7.61,7.61,0,0,1-3.14,6.28,13.26,13.26,0,0,1-8.4,2.5,23.77,23.77,0,0,1-4.88-.55,11.49,11.49,0,0,1-3.7-1.3,5,5,0,0,1-1.57-2.52,11.22,11.22,0,0,1-.69-3.78,2.12,2.12,0,0,1,.36-1.34,1.4,1.4,0,0,1,1.14-.58,1.81,1.81,0,0,1,1.32.71,25.53,25.53,0,0,1,1.79,2.55,4.93,4.93,0,0,0,2.12,1.68,7.21,7.21,0,0,0,3,.67,4.16,4.16,0,0,0,2.16-.5,1.45,1.45,0,0,0,.83-1.28,1.53,1.53,0,0,0-.65-1.24,6.41,6.41,0,0,0-2.11-1A28.69,28.69,0,0,1,315.5,441,12,12,0,0,1,313,439.3a7.52,7.52,0,0,1-2.85-5.74,7,7,0,0,1,.74-3.1,7.72,7.72,0,0,1,2.1-2.61A11.11,11.11,0,0,1,320.36,425.3Z" transform="translate(-186.39 -402.04)"/><path class="cls-1" d="M347.46,432.46a10,10,0,0,1,5.8,1.71,9.22,9.22,0,0,1,2.87,3.2,8.85,8.85,0,0,1,1.12,4.3,8.17,8.17,0,0,1-3.59,6.67A12.65,12.65,0,0,1,345.8,451a9.91,9.91,0,0,1-7-2.46,8,8,0,0,1-2.61-6.21,8.75,8.75,0,0,1,3.18-7A12,12,0,0,1,347.46,432.46ZM346,436.63a1.56,1.56,0,0,0-1.27.59,2.38,2.38,0,0,0-.48,1.56,14.84,14.84,0,0,0,.41,3,21.31,21.31,0,0,0,1,3.32,1.91,1.91,0,0,0,1.82,1.48c1.07,0,1.61-.68,1.61-2a17.08,17.08,0,0,0-.41-3.45,14.28,14.28,0,0,0-1-3.14A1.93,1.93,0,0,0,346,436.63Z" transform="translate(-186.39 -402.04)"/><path class="cls-1" d="M371.85,432.48a10.14,10.14,0,0,1,5.67,1.6,4.51,4.51,0,0,1,2.33,3.82,3.27,3.27,0,0,1-1.08,2.54,3.48,3.48,0,0,1-2.44.92,2.59,2.59,0,0,1-2.26-1.08,8.36,8.36,0,0,1-.69-1.75,1.87,1.87,0,0,0-1.86-1.52,2,2,0,0,0-1.67.87,3.37,3.37,0,0,0-.68,2.13,5.51,5.51,0,0,0,1.56,3.85,4.16,4.16,0,0,0,3.18,1.35,6.4,6.4,0,0,0,1.51-.15,9.2,9.2,0,0,0,1.61-.62,1.18,1.18,0,0,1,.56-.13,1.38,1.38,0,0,1,1.09.58,2.07,2.07,0,0,1,.47,1.35,3,3,0,0,1-.67,1.71,6.18,6.18,0,0,1-1.75,1.56,10.34,10.34,0,0,1-5.55,1.45,9.64,9.64,0,0,1-6.34-2.17,8.64,8.64,0,0,1-3.36-7A8.52,8.52,0,0,1,364.6,435,10.73,10.73,0,0,1,371.85,432.48Z" transform="translate(-186.39 -402.04)"/><path class="cls-2" d="M394.07,433.72v10.5a5.39,5.39,0,0,0,.22,1.82,2.49,2.49,0,0,0,.91,1.07,2.72,2.72,0,0,1,.75.68,1.19,1.19,0,0,1,.19.71c0,1.55-2,2.33-5.9,2.33a20.35,20.35,0,0,1-5-.5,2,2,0,0,1-1-.64,1.52,1.52,0,0,1-.39-1,1.23,1.23,0,0,1,.2-.76,5.2,5.2,0,0,1,1-.86,2.3,2.3,0,0,0,.79-1.36,12.12,12.12,0,0,0,.24-2.8c0-.4,0-1.14-.08-2.23s-.1-1.72-.12-1.91a1.49,1.49,0,0,0-1-1.13,1.57,1.57,0,0,1-1.12-1.45c0-.76.49-1.32,1.46-1.7a35.71,35.71,0,0,1,4.34-1.32,16.93,16.93,0,0,1,3.57-.54C393.74,432.6,394.07,433,394.07,433.72Zm-3.58-7.91a4.5,4.5,0,0,1,2.49.59,1.77,1.77,0,0,1,.92,1.58,2.46,2.46,0,0,1-1.39,2.2,10.36,10.36,0,0,1-5.33,1.28,3.76,3.76,0,0,1-2.09-.5,2,2,0,0,1-1-1.81c0-1,.74-1.85,2.22-2.44A11.5,11.5,0,0,1,390.49,425.81Z" transform="translate(-186.39 -402.04)"/><path class="cls-1" d="M410.52,432.46a8.79,8.79,0,0,1,5.33,1.59,4.68,4.68,0,0,1,1.62,1.94,7.89,7.89,0,0,1,.46,3l0,2.69a10.35,10.35,0,0,0,.4,3.63,1.25,1.25,0,0,0,.38.51,2.48,2.48,0,0,0,.76.2.65.65,0,0,1,.58.75,3,3,0,0,1-.7,1.81,5.69,5.69,0,0,1-1.79,1.57,5.55,5.55,0,0,1-2.84.8,3.73,3.73,0,0,1-3-1.3,1,1,0,0,0-.7-.47,1.78,1.78,0,0,0-1,.45,6.78,6.78,0,0,1-4.1,1.32,6.62,6.62,0,0,1-3.83-1,5,5,0,0,1-2.08-4,4.47,4.47,0,0,1,1.52-3.32c1.57-1.52,3.93-2.28,7.08-2.3a2.58,2.58,0,0,0,1.32-.2c.18-.14.27-.46.27-1a6.93,6.93,0,0,0-.4-2.77,1.33,1.33,0,0,0-1.3-.86,1.61,1.61,0,0,0-1,.32,6.27,6.27,0,0,0-1,1.2c-1.08,1.53-2.2,2.29-3.36,2.29a2,2,0,0,1-1.45-.52,1.82,1.82,0,0,1-.56-1.38,2.75,2.75,0,0,1,.7-1.73,6.2,6.2,0,0,1,1.88-1.52A14.46,14.46,0,0,1,410.52,432.46Zm-1.21,10.46a1.78,1.78,0,0,0-1.38.65,2.24,2.24,0,0,0-.59,1.55,2.18,2.18,0,0,0,.42,1.4,1.32,1.32,0,0,0,1.1.54c1,0,1.45-.82,1.45-2.44a2.86,2.86,0,0,0-.21-1.34A.87.87,0,0,0,409.31,442.92Z" transform="translate(-186.39 -402.04)"/><path class="cls-1" d="M434.49,436.14v5.8a42.43,42.43,0,0,0,.12,4.48,1.38,1.38,0,0,0,.9,1,2.64,2.64,0,0,1,.89.54,1.05,1.05,0,0,1,.23.72,1.65,1.65,0,0,1-.43,1.09,2.27,2.27,0,0,1-1.13.68,16.54,16.54,0,0,1-4.39.4,15.74,15.74,0,0,1-4.89-.52,2.47,2.47,0,0,1-1.07-.73,1.6,1.6,0,0,1-.41-1,.92.92,0,0,1,.22-.67,3.09,3.09,0,0,1,1-.56c.47-.21.75-.77.86-1.68a57,57,0,0,0,.29-6.69,37.86,37.86,0,0,0-.25-5.67,2.71,2.71,0,0,0-1.27-1.88,3.24,3.24,0,0,1-1-.82,1.57,1.57,0,0,1-.28-.95,1.91,1.91,0,0,1,.85-1.54,8.36,8.36,0,0,1,2.71-1.22,25.92,25.92,0,0,1,3.23-.73,20.27,20.27,0,0,1,2.89-.34c1,0,1.43.59,1.43,1.77,0,.39-.06,1.27-.18,2.66C434.61,432.37,434.52,434.35,434.49,436.14Z" transform="translate(-186.39 -402.04)"/><path class="cls-1" d="M336.24,454.4v9.1h-3.92v-3.89h-6.73v3.89h-3.86v-9.1h3.86v3.87h6.73V454.4Z" transform="translate(-186.39 -402.04)"/><path class="cls-1" d="M367.35,454.4v9.1h-3.9v-3.88h-6.88v3.88h-4v-9.1Zm-10.72,1.33v2.54h6.72v-2.54Z" transform="translate(-186.39 -402.04)"/><path class="cls-1" d="M398.35,462.16l-1.68,1.34h-13v-9.1h14.63l-1.66,1.33h-9v6.43Z" transform="translate(-186.39 -402.04)"/><path class="cls-1" d="M423.6,458.85l5.65,4.65H425l-4.9-3.94h-1.88v3.94h-3.87v-9.1h3.87v3.82h1.88l4.77-3.82h4.41Z" transform="translate(-186.39 -402.04)"/><path class="cls-1" d="M315.51,493l-.42.89a19,19,0,0,1-1.06,1.92,3.82,3.82,0,0,1-.89,1,1.38,1.38,0,0,1-.87.31,1.06,1.06,0,0,1-.82-.4,7.17,7.17,0,0,1-1.14-3,16.22,16.22,0,0,1-.36-3.11,4.61,4.61,0,0,1,.23-1.64,1.78,1.78,0,0,1,.73-.9,2.64,2.64,0,0,1,1.3-.28,1,1,0,0,1,.61.14.88.88,0,0,1,.26.59,8.67,8.67,0,0,1,.07,1.33,26.65,26.65,0,0,0,.16,3.05c0,.06.05.32.1.78h0c0-.09.08-.17.1-.23a1.42,1.42,0,0,0,.08-.18c0-.05.05-.11.08-.16l.09-.21c.34-.78.71-1.68,1.08-2.69a16.11,16.11,0,0,1,.9-2.13l.19-.2a2.27,2.27,0,0,1,1.33-.34,1.17,1.17,0,0,1,.69.17,1,1,0,0,1,.31.57,10.14,10.14,0,0,1,.1,1.32,15.82,15.82,0,0,0,.17,2.05c.11.87.24,1.65.38,2.34,0,.23.14.68.29,1.33h.05a9.76,9.76,0,0,0,.29-1,17.83,17.83,0,0,0,.28-3.58v-.43a3.66,3.66,0,0,1,.13-1.11,1.89,1.89,0,0,1,.44-.76,3,3,0,0,1,.8-.56,1.79,1.79,0,0,1,.79-.22.6.6,0,0,1,.57.32,2.34,2.34,0,0,1,.17,1,15.21,15.21,0,0,1-.67,4,17.69,17.69,0,0,1-1.51,3.76,5.83,5.83,0,0,1-.58.88,1.69,1.69,0,0,1-.59.48,1.52,1.52,0,0,1-.69.14c-.93,0-1.68-.59-2.28-1.77a8.47,8.47,0,0,1-.46-1.24,13,13,0,0,1-.36-1.61,3.09,3.09,0,0,1-.07-.65Z" transform="translate(-186.39 -402.04)"/><path class="cls-1" d="M329.9,494.19v0l0,0a17.88,17.88,0,0,1-1.67,1.74,7.24,7.24,0,0,1-1.39,1,2.64,2.64,0,0,1-1.18.34,2.43,2.43,0,0,1-1.81-.74,2.54,2.54,0,0,1-.71-1.85,4.94,4.94,0,0,1,.35-1.64,9.19,9.19,0,0,1,1-1.86,9.39,9.39,0,0,1,2.58-2.52,5.55,5.55,0,0,1,3.08-1.06,3.79,3.79,0,0,1,2.06.51,1.49,1.49,0,0,1,.8,1.3,2.31,2.31,0,0,1-.4,1.22,1.18,1.18,0,0,1,.67.11c.09.07.14.25.14.52,0,0,0,.11-.05.4,0,.65-.06,1.25-.06,1.81,0,.29,0,.51,0,.66s0,.32,0,.52,0,.35.06.47a4.24,4.24,0,0,0,.25.91,4.8,4.8,0,0,1-1.12.84,2.45,2.45,0,0,1-1.1.27q-1.5,0-1.5-2.52C329.88,494.46,329.89,494.3,329.9,494.19Zm.58-2.23-.18.05a4.47,4.47,0,0,1-1,.2c-.25,0-.38-.07-.38-.2a1.27,1.27,0,0,1,.16-.36,2.88,2.88,0,0,0,.54-1.56,1.92,1.92,0,0,0-.14-.77c-.1-.23-.21-.34-.32-.34s-.27.11-.48.33a9,9,0,0,0-1.44,2,4.07,4.07,0,0,0-.53,1.85,1.69,1.69,0,0,0,.21.88.65.65,0,0,0,.56.36,2.54,2.54,0,0,0,1.06-.61,19.14,19.14,0,0,0,1.74-1.6l.26-.22Z" transform="translate(-186.39 -402.04)"/><path class="cls-1" d="M340.5,490.33l.13-.42a2.82,2.82,0,0,1,1.53-2.05,1.83,1.83,0,0,1,.78-.21c.43,0,.65.18.65.55a3.29,3.29,0,0,1-.18.85c-.11.38-.27.81-.46,1.3s-.42,1-.68,1.6-.54,1.17-.85,1.78a20.25,20.25,0,0,1-1.72,2.94,14.53,14.53,0,0,1-1.27,1.53,10.83,10.83,0,0,1-1.36,1.19,6.66,6.66,0,0,1-1.34.79,2.94,2.94,0,0,1-1.15.27c-.3,0-.44-.13-.44-.38a2.39,2.39,0,0,1,.13-.72,3.2,3.2,0,0,1,.38-.79,2.69,2.69,0,0,1,.67-.63,10.65,10.65,0,0,1,1.5-.8c-.39-.66-.69-1.18-.89-1.56a15.77,15.77,0,0,1-.67-1.44,9.08,9.08,0,0,1-.8-3.45,5.49,5.49,0,0,1,.29-1.93,1.63,1.63,0,0,1,1-.9,2.76,2.76,0,0,1,1-.22.85.85,0,0,1,.86.48,9.43,9.43,0,0,1,.38,2.26,33.41,33.41,0,0,0,.57,3.76c0,.19.1.45.16.78h0c.18-.38.37-.85.58-1.39l.68-1.73C340.22,491.19,340.39,490.71,340.5,490.33Z" transform="translate(-186.39 -402.04)"/><path class="cls-1" d="M351.41,487.59l0-.12a14.56,14.56,0,0,1,1.11-2.56,2.33,2.33,0,0,1,.63-.62,2.67,2.67,0,0,1,1.42-.48.9.9,0,0,1,.6.18.63.63,0,0,1,.2.51,3.25,3.25,0,0,1-.29.91,12.69,12.69,0,0,0-.75,2.16,1.65,1.65,0,0,1,.32.06,2.3,2.3,0,0,1,.77.2.42.42,0,0,1,.19.4,1.87,1.87,0,0,1-.26,1,1.68,1.68,0,0,1-.7.65,3.37,3.37,0,0,1-1,.19c-.08.26-.18.6-.28,1.05s-.12.93-.19,1.62a4.53,4.53,0,0,0-.06.71,1.34,1.34,0,0,0,1.49,1.54h.09q.18,0,.18.06c0,.11-.12.28-.34.53a4.09,4.09,0,0,1-.73.65,3.6,3.6,0,0,1-.94.47,2.77,2.77,0,0,1-.92.18,2.16,2.16,0,0,1-1.67-.7,2.61,2.61,0,0,1-.64-1.83,6.63,6.63,0,0,1,.17-1.28c.12-.53.3-1.23.54-2.12l.12-.49a2.24,2.24,0,0,0,.08-.31.8.8,0,0,1-.55-.17.66.66,0,0,1-.17-.5,1.8,1.8,0,0,1,.47-1.17A2.05,2.05,0,0,1,351.41,487.59Z" transform="translate(-186.39 -402.04)"/><path class="cls-1" d="M363,487.21c1,0,1.46.11,1.46.34s-.22.4-.65.42a3.24,3.24,0,0,0-1.48.45,4.32,4.32,0,0,0-1.22,1.09,5.75,5.75,0,0,0-.83,1.57,5.84,5.84,0,0,0-.29,1.83,2.72,2.72,0,0,0,.5,1.72,1.56,1.56,0,0,0,1.29.65,1.59,1.59,0,0,0,1.3-.77,2.92,2.92,0,0,0,.56-1.77,3.57,3.57,0,0,0-.35-1.56,3.33,3.33,0,0,0-1-1.23c-.19-.15-.28-.25-.28-.32s.13-.23.4-.42a4.94,4.94,0,0,1,1-.51,3.05,3.05,0,0,1,.94-.2,1.69,1.69,0,0,1,.84.23,2.37,2.37,0,0,1,.7.65,3.4,3.4,0,0,1,.46,1,4.1,4.1,0,0,1,.16,1.18,5.6,5.6,0,0,1-.39,2,4.47,4.47,0,0,1-1,1.64,6.53,6.53,0,0,1-2,1.29,5.46,5.46,0,0,1-2.21.5,5.91,5.91,0,0,1-2-.35,4.08,4.08,0,0,1-1.59-.93,3,3,0,0,1-.78-2.21,5.14,5.14,0,0,1,.56-2.27,7.25,7.25,0,0,1,1.51-2.05,7.49,7.49,0,0,1,2.1-1.46A5.48,5.48,0,0,1,363,487.21Z" transform="translate(-186.39 -402.04)"/><path class="cls-1" d="M377.94,487.61a1.81,1.81,0,0,1,1.19.43,1.39,1.39,0,0,1,.44,1.07,2.48,2.48,0,0,1-.34,1.19,3.2,3.2,0,0,1-.85,1,1.69,1.69,0,0,1-1,.38q-.3,0-.3-.21a1.33,1.33,0,0,1,.11-.34,2.83,2.83,0,0,0,.38-1.49q0-.42-.09-.42c-.09,0-.22.12-.39.35a3.25,3.25,0,0,0-.43.83,10.83,10.83,0,0,0-.51,1.61,6.56,6.56,0,0,0-.2,1.43,2.36,2.36,0,0,0,.2,1,.63.63,0,0,0,.57.38,1.8,1.8,0,0,0,.88-.36,5.63,5.63,0,0,0,1.06-.86q.21-.27.36-.27c.16,0,.23.09.23.27a3.07,3.07,0,0,1-.93,2.17,5.28,5.28,0,0,1-1.48,1,3.51,3.51,0,0,1-1.5.4,2.75,2.75,0,0,1-1.94-.73,2.47,2.47,0,0,1-.77-1.85,6.28,6.28,0,0,1,.5-2.34,10,10,0,0,1,1.34-2.33,8.64,8.64,0,0,1,1.94-1.84,2.75,2.75,0,0,1,1.53-.53Z" transform="translate(-186.39 -402.04)"/><path class="cls-1" d="M386.8,487.21c1,0,1.46.11,1.46.34s-.22.4-.66.42a3.2,3.2,0,0,0-1.47.45,4.32,4.32,0,0,0-1.22,1.09,5.75,5.75,0,0,0-.83,1.57,5.57,5.57,0,0,0-.3,1.83,2.79,2.79,0,0,0,.5,1.72,1.57,1.57,0,0,0,1.3.65,1.59,1.59,0,0,0,1.3-.77,2.92,2.92,0,0,0,.56-1.77,3.57,3.57,0,0,0-.35-1.56,3.33,3.33,0,0,0-1-1.23c-.19-.15-.28-.25-.28-.32s.13-.23.4-.42a4.94,4.94,0,0,1,1-.51,3,3,0,0,1,.94-.2,1.71,1.71,0,0,1,.84.23,2.23,2.23,0,0,1,.69.65,3.18,3.18,0,0,1,.47,1,4.48,4.48,0,0,1,.16,1.18,5.6,5.6,0,0,1-.39,2,4.47,4.47,0,0,1-1,1.64,6.46,6.46,0,0,1-2,1.29,5.42,5.42,0,0,1-2.2.5,5.87,5.87,0,0,1-2-.35,4.08,4.08,0,0,1-1.59-.93,3,3,0,0,1-.78-2.21,5.12,5.12,0,0,1,.55-2.27,7.65,7.65,0,0,1,1.51-2.05,7.78,7.78,0,0,1,2.1-1.46A5.56,5.56,0,0,1,386.8,487.21Z" transform="translate(-186.39 -402.04)"/><path class="cls-1" d="M395.31,491.88l.59-.68c.6-.66,1.07-1.15,1.42-1.47a4.32,4.32,0,0,1,.93-.7,1.77,1.77,0,0,1,.85-.22,1.13,1.13,0,0,1,1,.37,2.19,2.19,0,0,1,.29,1.29c0,.26,0,.63-.08,1.12a15.5,15.5,0,0,0-.12,1.86,9.64,9.64,0,0,0,.1,1.58,4.76,4.76,0,0,0,.2.74,2.09,2.09,0,0,1,.1.48.29.29,0,0,1-.12.25,2.72,2.72,0,0,1-.8.46,2.35,2.35,0,0,1-.84.19,1.57,1.57,0,0,1-1-.38,2.52,2.52,0,0,1-.7-1,4.31,4.31,0,0,1-.25-1.53,8.93,8.93,0,0,1,.12-1.34l0,0c-.28.32-.51.56-.68.75l-.48.51c-.73.84-1.35,1.59-1.86,2.26-.19.26-.37.49-.54.68a1.14,1.14,0,0,1-.82.37,1.27,1.27,0,0,1-1-.47,1.85,1.85,0,0,1-.39-1.21,6.46,6.46,0,0,1,.11-1.13c.07-.44.16-.91.28-1.42s.27-1,.43-1.56.35-1,.55-1.52a5.34,5.34,0,0,1,1.09-1.87,1.42,1.42,0,0,1,1.06-.44c.68,0,1,.44,1,1.31a13.88,13.88,0,0,1-.41,2.78Z" transform="translate(-186.39 -402.04)"/><path class="cls-1" d="M405.51,491.88l.59-.68q.88-1,1.41-1.47a4.11,4.11,0,0,1,.94-.7,1.76,1.76,0,0,1,.84-.22,1.15,1.15,0,0,1,1,.37,2.2,2.2,0,0,1,.28,1.29,9.44,9.44,0,0,1-.08,1.12,17.75,17.75,0,0,0-.11,1.86,11.12,11.12,0,0,0,.09,1.58,4.79,4.79,0,0,0,.21.74,2.09,2.09,0,0,1,.1.48.29.29,0,0,1-.12.25,2.86,2.86,0,0,1-.8.46,2.35,2.35,0,0,1-.84.19,1.55,1.55,0,0,1-1-.38,2.43,2.43,0,0,1-.7-1,4.31,4.31,0,0,1-.25-1.53,10.28,10.28,0,0,1,.11-1.34l0,0-.67.75-.49.51c-.73.84-1.35,1.59-1.85,2.26-.2.26-.38.49-.54.68a1.14,1.14,0,0,1-.82.37,1.27,1.27,0,0,1-1-.47,1.85,1.85,0,0,1-.39-1.21,7.6,7.6,0,0,1,.11-1.13c.07-.44.17-.91.29-1.42s.26-1,.43-1.56.35-1,.54-1.52a5.34,5.34,0,0,1,1.09-1.87,1.44,1.44,0,0,1,1.07-.44c.68,0,1,.44,1,1.31a13.71,13.71,0,0,1-.4,2.78Z" transform="translate(-186.39 -402.04)"/><path class="cls-1" d="M414.91,494.31a.67.67,0,0,0,.76.58,3.56,3.56,0,0,0,1.9-.85,2.22,2.22,0,0,1,.92-.5,1.06,1.06,0,0,1,.55.15c.17.11.25.22.25.33a.78.78,0,0,1-.28.46,11.23,11.23,0,0,1-1.19,1,11.48,11.48,0,0,1-1.3.82,7.3,7.3,0,0,1-1.25.51,3.8,3.8,0,0,1-1.11.19,2.74,2.74,0,0,1-2-.69,2.46,2.46,0,0,1-.73-1.86,6.13,6.13,0,0,1,.39-2,8.57,8.57,0,0,1,1-2.1,7,7,0,0,1,1.89-1.9,4.88,4.88,0,0,1,2.66-.92,1.87,1.87,0,0,1,1.44.58,2.3,2.3,0,0,1,.52,1.6,3.74,3.74,0,0,1-.42,1.65,5.86,5.86,0,0,1-1.22,1.65,6.8,6.8,0,0,1-1.3,1,2.4,2.4,0,0,1-1.12.37A1,1,0,0,1,414.91,494.31Zm0-.31a3,3,0,0,0,.68-.61,4.65,4.65,0,0,0,.8-1.45,5.74,5.74,0,0,0,.35-1.21,6.16,6.16,0,0,0,.13-1.24c0-.35-.07-.53-.22-.53s-.53.46-1,1.37a13,13,0,0,0-.62,1.66,5.19,5.19,0,0,0-.24,1.42A3.45,3.45,0,0,0,414.89,494Z" transform="translate(-186.39 -402.04)"/><path class="cls-1" d="M425.41,487.61a1.8,1.8,0,0,1,1.18.43,1.39,1.39,0,0,1,.44,1.07,2.48,2.48,0,0,1-.34,1.19,3.07,3.07,0,0,1-.85,1,1.69,1.69,0,0,1-1,.38q-.3,0-.3-.21a1.33,1.33,0,0,1,.11-.34,2.83,2.83,0,0,0,.39-1.49c0-.28,0-.42-.1-.42s-.22.12-.39.35a3.25,3.25,0,0,0-.43.83,12.15,12.15,0,0,0-.51,1.61,6.56,6.56,0,0,0-.2,1.43,2.36,2.36,0,0,0,.2,1,.63.63,0,0,0,.57.38,1.8,1.8,0,0,0,.88-.36,5.33,5.33,0,0,0,1.06-.86q.21-.27.36-.27t.24.27a3.08,3.08,0,0,1-.94,2.17,5.28,5.28,0,0,1-1.48,1,3.51,3.51,0,0,1-1.5.4,2.71,2.71,0,0,1-1.93-.73,2.44,2.44,0,0,1-.78-1.85,6.28,6.28,0,0,1,.5-2.34A10.32,10.32,0,0,1,421.9,490a8.64,8.64,0,0,1,1.94-1.84,2.75,2.75,0,0,1,1.53-.53Z" transform="translate(-186.39 -402.04)"/><path class="cls-1" d="M429.6,487.59l0-.12a14.41,14.41,0,0,1,1.12-2.56,2.28,2.28,0,0,1,.62-.62,2.7,2.7,0,0,1,1.42-.48.9.9,0,0,1,.6.18.6.6,0,0,1,.2.51,2.93,2.93,0,0,1-.29.91,14.71,14.71,0,0,0-.75,2.16l.33.06a2.37,2.37,0,0,1,.77.2.43.43,0,0,1,.18.4,1.78,1.78,0,0,1-.26,1,1.72,1.72,0,0,1-.69.65,3.52,3.52,0,0,1-1.05.19c-.08.26-.17.6-.28,1.05s-.12.93-.19,1.62a4.53,4.53,0,0,0-.06.71,1.34,1.34,0,0,0,1.5,1.54h.08q.18,0,.18.06c0,.11-.11.28-.33.53a4.16,4.16,0,0,1-.74.65,3.54,3.54,0,0,1-.93.47,2.81,2.81,0,0,1-.92.18,2.15,2.15,0,0,1-1.67-.7,2.57,2.57,0,0,1-.64-1.83A5.93,5.93,0,0,1,428,493c.11-.53.29-1.23.53-2.12,0-.16.08-.32.13-.49s.07-.28.08-.31a.81.81,0,0,1-.56-.17.66.66,0,0,1-.17-.5,1.77,1.77,0,0,1,.48-1.17A2,2,0,0,1,429.6,487.59Z" transform="translate(-186.39 -402.04)"/></svg>
