<?xml version="1.0" encoding="utf-8"?>
<!-- Generator: Adobe Illustrator 25.4.1, SVG Export Plug-In . SVG Version: 6.00 Build 0)  -->
<svg version="1.1" id="Layer_1" xmlns="http://www.w3.org/2000/svg" xmlns:xlink="http://www.w3.org/1999/xlink" x="0px" y="0px"
	 viewBox="180 80 200 200" style="enable-background:new 0 0 612 792;" xml:space="preserve">
<style type="text/css">
	.st0{fill:none;stroke:#000000;stroke-miterlimit:10;}
	.st1{fill:#4850A2;}
	.st2{fill:#33AAD3;}
	.st3{fill:#070708;}
</style>
<path class="st0" d="M154.49,230.73"/>
<g>
	<g>
		<g>
			<path class="st1" d="M229.08,127.93c2.58,0,5.97,0.64,10.16,1.92c0.5,0.15,0.9,0.23,1.2,0.23c0.25,0,1-0.23,2.26-0.68
				c0.4-0.15,0.83-0.23,1.28-0.23c1.68,0,3.45,1.33,5.32,3.99s2.8,5.19,2.8,7.6c0,1.4-0.42,2.59-1.26,3.56s-1.86,1.45-3.07,1.45
				c-1,0-1.82-0.2-2.45-0.6c-0.63-0.4-2.01-1.59-4.14-3.57c-3.01-2.81-5.97-4.21-8.88-4.21c-1.4,0-2.53,0.34-3.37,1.02
				s-1.26,1.57-1.26,2.67c0,2.18,1.92,3.82,5.76,4.93c5.19,1.53,8.51,2.65,9.97,3.35c6.4,3.11,9.59,7.69,9.59,13.73
				c0,5.34-2.18,9.71-6.55,13.09c-4.46,3.46-10.3,5.19-17.49,5.19c-3.21,0-6.6-0.38-10.16-1.15c-3.56-0.76-6.13-1.66-7.71-2.69
				c-1.2-0.8-2.29-2.55-3.25-5.25c-0.97-2.7-1.45-5.32-1.45-7.88c0-1.23,0.25-2.16,0.75-2.78c0.63-0.8,1.42-1.2,2.37-1.2
				c0.95,0,1.87,0.49,2.75,1.47c0.53,0.55,1.77,2.32,3.72,5.3c0.93,1.4,2.4,2.57,4.42,3.5s4.11,1.39,6.26,1.39
				c1.86,0,3.36-0.34,4.51-1.03c1.15-0.69,1.73-1.57,1.73-2.65c0-1-0.45-1.87-1.35-2.6c-0.9-0.73-2.37-1.4-4.4-2.03
				c-3.59-1.13-6.32-2.16-8.2-3.1s-3.64-2.13-5.27-3.56c-3.96-3.51-5.94-7.5-5.94-11.96c0-2.21,0.51-4.36,1.54-6.45
				c1.03-2.09,2.48-3.91,4.36-5.44C217.87,129.7,223.02,127.93,229.08,127.93z"/>
		</g>
		<g>
			<path class="st2" d="M244.89,150.62c4.82,0,7.23,1,7.23,2.99c0,0.54-0.12,0.98-0.37,1.32c-0.25,0.34-0.72,0.72-1.41,1.14
				c-0.6,0.37-0.99,0.86-1.15,1.46c-0.16,0.6-0.24,1.82-0.24,3.66c0,1.08,0.2,1.75,0.6,1.99c0.23,0.15,0.58,0.25,1.05,0.28
				c0.47,0.03,1.58,0.05,3.33,0.05c1.59,0,2.58-0.09,2.97-0.26c0.39-0.17,0.58-0.6,0.58-1.28c0-2.04-0.09-3.46-0.28-4.27
				c-0.19-0.8-0.55-1.35-1.09-1.65c-0.68-0.39-1.13-0.71-1.34-0.99s-0.32-0.63-0.32-1.08c0-0.63,0.24-1.21,0.72-1.73
				c0.48-0.52,1.11-0.87,1.88-1.05c1.61-0.39,3.62-0.58,6.05-0.58c2.84,0,4.94,0.26,6.29,0.78c1.35,0.52,2.03,1.33,2.03,2.42
				c0,0.93-0.48,1.62-1.44,2.09c-0.6,0.28-1,0.54-1.18,0.8s-0.33,0.73-0.44,1.43c-0.06,0.39-0.14,2.1-0.23,5.15
				c-0.09,3.04-0.14,5.46-0.14,7.26c0,3.14,0.12,5.13,0.35,5.98c0.12,0.46,0.26,0.77,0.42,0.93c0.15,0.15,0.64,0.46,1.46,0.93
				c0.59,0.32,0.88,0.82,0.88,1.48c0,1.17-0.7,2.03-2.1,2.56c-1.4,0.53-3.67,0.8-6.8,0.8c-2.75,0-4.78-0.27-6.1-0.81
				c-1.19-0.49-1.79-1.26-1.79-2.3c0-0.88,0.46-1.57,1.37-2.06c0.45-0.25,0.75-0.49,0.92-0.74c0.16-0.25,0.32-0.7,0.48-1.37
				c0.28-1.3,0.42-2.89,0.42-4.78c0-0.97-0.14-1.58-0.43-1.81s-1.03-0.35-2.24-0.35c-2.77,0-4.53,0.15-5.29,0.46
				c-0.31,0.12-0.5,0.49-0.58,1.09c-0.09,0.74-0.14,1.65-0.14,2.74c0,1.76,0.25,3.03,0.74,3.8c0.17,0.25,0.57,0.56,1.21,0.95
				c0.65,0.37,0.97,0.98,0.97,1.83c0,1.08-0.75,1.91-2.25,2.48c-1.5,0.57-3.64,0.86-6.42,0.86c-2.53,0-4.61-0.26-6.21-0.79
				c-0.7-0.23-1.24-0.56-1.63-0.99c-0.39-0.43-0.59-0.89-0.59-1.4c0-0.51,0.12-0.9,0.37-1.18c0.25-0.28,0.79-0.63,1.62-1.07
				c0.43-0.22,0.74-0.49,0.92-0.83c0.18-0.34,0.31-0.91,0.41-1.72c0.23-1.81,0.35-4.17,0.35-7.09c0-0.54-0.01-1.18-0.02-1.92
				c-0.06-3.71-0.09-5.83-0.09-6.35c0.02-1.33-0.1-2.21-0.34-2.63c-0.24-0.43-0.87-0.89-1.89-1.4c-0.68-0.32-1.02-0.81-1.02-1.46
				c0-1.56,1.51-2.64,4.54-3.25C241.22,150.8,243.03,150.62,244.89,150.62z"/>
		</g>
		<g>
			<path class="st3" d="M222.64,237.18c-3.18,0-4.84-0.78-5.57-2.4c-0.85-1.88,0.08-3.92,2.76-6.06c0.63-0.5,1.27-0.87,1.83-1.18
				c4.38-2.38,8.52-8.68,8.56-8.74l0.06-0.08c2.23-3.15,2.67-5.73,1.31-7.69c-0.85-1.22-2.38-2.04-4.18-2.25
				c-11.26-1.3-24.08-10.43-24.62-10.82c-18.56-14.43-19.01-35.07-19.02-36.9c-0.1-1.65-0.13-3.33-0.07-4.99l-0.01-0.24
				c-0.01-0.24-0.02-0.49-0.02-0.73c0-28.07,22.83-50.9,50.9-50.9c28.07,0,50.91,22.83,50.91,50.9c0,0.12,0,0.25-0.01,0.37
				l0.04,0.33c0.04,0.8,0.85,19.91-17.34,48.93l0,0c-17.91,28.57-36.38,31.44-38.12,31.65C226.95,236.9,224.53,237.18,222.64,237.18
				z M234.39,221.57c-0.45,0.68-5,7.47-10.32,10.36c-0.13,0.07-0.26,0.15-0.39,0.22c1.24-0.07,3.04-0.27,5.6-0.71l0.18-0.02
				c0.16-0.02,17.5-2.24,34.49-29.34l0,0c15.58-24.87,16.55-42.2,16.59-45.46l-0.08-0.15l0.03-0.99c0.01-0.13,0.01-0.25,0.01-0.38
				c0-25.31-20.59-45.9-45.91-45.9c-25.31,0-45.9,20.59-45.9,45.9c0,0.19,0.01,0.38,0.01,0.57l0.01,0.42l0,0.07
				c-0.06,1.57-0.03,3.09,0.07,4.66l0.01,0.09l0,0.09c0,0.19,0.08,19.78,17.01,32.94c0.04,0.03,12.24,8.7,22.21,9.85
				c3.23,0.38,6.04,1.97,7.7,4.36C237.21,210.33,239.05,214.97,234.39,221.57z"/>
		</g>
	</g>
	<g>
		<path class="st1" d="M317.63,127.46c1.24,0,2.87,0.31,4.88,0.92c0.24,0.07,0.43,0.11,0.58,0.11c0.12,0,0.48-0.11,1.08-0.33
			c0.19-0.07,0.4-0.11,0.62-0.11c0.81,0,1.66,0.64,2.56,1.92c0.9,1.28,1.35,2.49,1.35,3.65c0,0.67-0.2,1.24-0.61,1.71
			c-0.4,0.46-0.89,0.7-1.47,0.7c-0.48,0-0.87-0.1-1.17-0.29c-0.3-0.19-0.96-0.76-1.99-1.72c-1.45-1.35-2.87-2.02-4.26-2.02
			c-0.67,0-1.21,0.16-1.62,0.49c-0.4,0.33-0.6,0.75-0.6,1.28c0,1.05,0.92,1.84,2.76,2.37c2.49,0.73,4.09,1.27,4.79,1.61
			c3.07,1.49,4.61,3.69,4.61,6.59c0,2.57-1.05,4.66-3.14,6.29c-2.14,1.66-4.94,2.49-8.4,2.49c-1.54,0-3.17-0.18-4.88-0.55
			c-1.71-0.37-2.94-0.8-3.7-1.29c-0.58-0.39-1.1-1.23-1.56-2.52c-0.46-1.29-0.7-2.56-0.7-3.79c0-0.59,0.12-1.04,0.36-1.34
			c0.3-0.39,0.68-0.58,1.14-0.58c0.46,0,0.9,0.23,1.32,0.7c0.25,0.27,0.85,1.11,1.79,2.55c0.45,0.67,1.15,1.23,2.12,1.68
			c0.97,0.45,1.97,0.67,3.01,0.67c0.89,0,1.61-0.17,2.17-0.5c0.55-0.33,0.83-0.76,0.83-1.27c0-0.48-0.22-0.9-0.65-1.25
			c-0.43-0.35-1.14-0.67-2.11-0.98c-1.72-0.54-3.04-1.04-3.94-1.49c-0.9-0.45-1.75-1.02-2.53-1.71c-1.9-1.69-2.85-3.6-2.85-5.75
			c0-1.06,0.25-2.09,0.74-3.1c0.49-1.01,1.19-1.88,2.1-2.61C312.25,128.31,314.72,127.46,317.63,127.46z"/>
	</g>
	<g>
		<path class="st1" d="M344.73,134.62c2.21,0,4.14,0.57,5.8,1.72c1.19,0.82,2.15,1.89,2.87,3.2c0.75,1.37,1.12,2.81,1.12,4.3
			c0,2.61-1.2,4.84-3.6,6.67c-2.29,1.75-4.91,2.62-7.86,2.62c-2.88,0-5.21-0.82-6.99-2.46c-1.73-1.59-2.6-3.66-2.6-6.21
			c0-2.84,1.06-5.17,3.18-6.97C338.87,135.57,341.56,134.62,344.73,134.62z M343.29,138.79c-0.53,0-0.95,0.2-1.27,0.59
			c-0.32,0.39-0.48,0.91-0.48,1.56c0,0.72,0.14,1.71,0.41,2.95c0.27,1.25,0.59,2.35,0.97,3.32c0.37,0.99,0.98,1.48,1.82,1.48
			c1.07,0,1.61-0.68,1.61-2.04c0-1.01-0.14-2.16-0.41-3.45c-0.27-1.29-0.6-2.34-0.99-3.14C344.55,139.24,344,138.82,343.29,138.79z"
			/>
	</g>
	<g>
		<path class="st1" d="M369.12,134.64c2.14,0,4.04,0.54,5.67,1.61c1.55,1.02,2.33,2.29,2.33,3.81c0,1.05-0.36,1.9-1.08,2.55
			c-0.67,0.61-1.49,0.92-2.44,0.92c-1,0-1.75-0.36-2.26-1.08c-0.16-0.23-0.39-0.81-0.69-1.75c-0.32-1.01-0.95-1.52-1.86-1.52
			c-0.66,0-1.22,0.29-1.67,0.87c-0.45,0.58-0.68,1.29-0.68,2.13c0,1.45,0.52,2.73,1.55,3.85c0.84,0.9,1.9,1.35,3.18,1.35
			c0.6,0,1.11-0.05,1.52-0.15c0.41-0.1,0.95-0.31,1.61-0.62c0.17-0.08,0.35-0.13,0.56-0.13c0.41,0,0.77,0.19,1.08,0.58
			c0.31,0.39,0.47,0.84,0.47,1.35c0,0.54-0.22,1.11-0.67,1.71c-0.45,0.6-1.03,1.12-1.75,1.56c-1.57,0.96-3.42,1.45-5.55,1.45
			c-2.48,0-4.6-0.72-6.34-2.17c-2.24-1.83-3.36-4.16-3.36-6.99c0-2.72,1.04-4.97,3.13-6.76
			C363.86,135.49,366.28,134.64,369.12,134.64z"/>
	</g>
	<g>
		<path class="st2" d="M391.34,135.88v10.5c0,0.83,0.08,1.44,0.23,1.82c0.15,0.39,0.46,0.74,0.91,1.07
			c0.37,0.27,0.62,0.49,0.75,0.68c0.13,0.19,0.19,0.42,0.19,0.71c0,1.55-1.97,2.33-5.91,2.33c-2.12,0-3.8-0.17-5.04-0.51
			c-0.42-0.12-0.76-0.33-1.02-0.63c-0.26-0.3-0.39-0.64-0.39-1.03c0-0.33,0.07-0.58,0.2-0.76s0.47-0.47,1.01-0.87
			c0.37-0.28,0.64-0.73,0.79-1.35c0.16-0.63,0.23-1.56,0.23-2.8c0-0.4-0.03-1.14-0.08-2.23c-0.05-1.09-0.09-1.73-0.12-1.91
			c-0.07-0.49-0.41-0.87-1.01-1.14c-0.75-0.33-1.12-0.81-1.12-1.45c0-0.76,0.49-1.32,1.46-1.7c1.35-0.52,2.79-0.96,4.34-1.32
			c1.54-0.36,2.73-0.54,3.58-0.54C391.01,134.76,391.34,135.14,391.34,135.88z M387.76,127.97c1.05,0,1.88,0.2,2.49,0.59
			c0.61,0.39,0.92,0.92,0.92,1.58c0,0.93-0.46,1.66-1.39,2.2c-1.47,0.86-3.25,1.28-5.33,1.28c-0.88,0-1.58-0.17-2.1-0.51
			c-0.7-0.43-1.05-1.04-1.05-1.81c0-1.04,0.74-1.85,2.22-2.44C385.04,128.27,386.45,127.97,387.76,127.97z"/>
	</g>
	<g>
		<path class="st1" d="M407.79,134.62c2.1,0,3.87,0.53,5.33,1.59c0.77,0.57,1.31,1.21,1.62,1.94c0.31,0.73,0.46,1.73,0.46,3.01
			l-0.04,2.69c0,1.87,0.13,3.08,0.4,3.63c0.13,0.27,0.26,0.43,0.38,0.51s0.37,0.14,0.76,0.2c0.39,0.06,0.58,0.31,0.58,0.76
			c0,0.58-0.23,1.18-0.7,1.81c-0.46,0.63-1.06,1.15-1.8,1.57c-0.9,0.53-1.85,0.79-2.84,0.79c-1.27,0-2.26-0.43-3-1.3
			c-0.25-0.31-0.49-0.47-0.7-0.47c-0.24,0-0.56,0.15-0.96,0.45c-1.2,0.88-2.57,1.32-4.1,1.32c-1.58,0-2.85-0.34-3.83-1.01
			c-0.64-0.45-1.14-1.03-1.52-1.74c-0.37-0.72-0.56-1.47-0.56-2.25c0-1.25,0.51-2.36,1.52-3.32c1.58-1.52,3.94-2.28,7.08-2.29
			c0.7,0,1.14-0.07,1.32-0.21c0.18-0.14,0.27-0.46,0.27-0.97c0-1.28-0.13-2.2-0.4-2.77c-0.26-0.57-0.7-0.86-1.3-0.86
			c-0.36,0-0.68,0.11-0.97,0.33c-0.28,0.22-0.64,0.61-1.06,1.19c-1.07,1.53-2.19,2.29-3.36,2.29c-0.59,0-1.07-0.17-1.45-0.52
			c-0.37-0.35-0.56-0.81-0.56-1.37c0-0.58,0.23-1.16,0.7-1.73s1.09-1.08,1.89-1.52C403.15,135.2,405.42,134.62,407.79,134.62z
			 M406.58,145.08c-0.53,0-0.99,0.22-1.38,0.65c-0.39,0.43-0.59,0.95-0.59,1.55c0,0.58,0.14,1.04,0.42,1.4
			c0.28,0.35,0.64,0.53,1.1,0.53c0.96,0,1.45-0.81,1.45-2.44c0-0.66-0.07-1.11-0.21-1.34C407.23,145.21,406.97,145.09,406.58,145.08
			z"/>
	</g>
	<g>
		<path class="st1" d="M431.77,138.3v5.8c0,2.57,0.04,4.06,0.12,4.48c0.08,0.42,0.38,0.75,0.89,0.98c0.45,0.19,0.74,0.37,0.89,0.54
			c0.15,0.17,0.23,0.41,0.23,0.72c0,0.4-0.14,0.76-0.42,1.08c-0.28,0.33-0.66,0.55-1.13,0.69c-0.87,0.26-2.33,0.4-4.39,0.4
			c-2.32,0-3.96-0.17-4.9-0.52c-0.43-0.16-0.79-0.4-1.07-0.73c-0.28-0.33-0.42-0.68-0.42-1.04c0-0.29,0.08-0.51,0.23-0.67
			c0.15-0.16,0.48-0.34,0.98-0.56c0.47-0.2,0.76-0.76,0.87-1.68c0.19-1.57,0.29-3.79,0.29-6.68c0-2.94-0.08-4.83-0.25-5.67
			c-0.17-0.84-0.59-1.47-1.26-1.88c-0.51-0.29-0.85-0.56-1.04-0.82c-0.19-0.26-0.28-0.57-0.28-0.95c0-0.59,0.28-1.1,0.85-1.54
			c0.57-0.44,1.47-0.85,2.71-1.22c0.83-0.25,1.91-0.49,3.23-0.72c1.32-0.23,2.29-0.34,2.89-0.34c0.95,0,1.43,0.59,1.43,1.77
			c0,0.39-0.06,1.27-0.18,2.66C431.88,134.53,431.79,136.51,431.77,138.3z"/>
	</g>
	<g>
		<g>
			<path class="st1" d="M333.51,156.56v9.1h-3.92v-3.89h-6.73v3.89H319v-9.1h3.87v3.87h6.73v-3.87H333.51z"/>
		</g>
		<g>
			<path class="st1" d="M364.62,156.56v9.1h-3.9v-3.87h-6.88v3.87h-3.98v-9.1H364.62z M353.9,157.9v2.54h6.73v-2.54H353.9z"/>
		</g>
		<g>
			<path class="st1" d="M395.62,164.32l-1.67,1.34h-12.97v-9.1h14.63l-1.65,1.34h-9v6.42H395.62z"/>
		</g>
		<g>
			<path class="st1" d="M420.87,161.02l5.65,4.64h-4.27l-4.91-3.94h-1.88v3.94h-3.87v-9.1h3.87v3.82h1.88l4.78-3.82h4.4
				L420.87,161.02z"/>
		</g>
	</g>
	<g>
		<path class="st3" d="M312.78,195.14l-0.42,0.88c-0.38,0.79-0.74,1.43-1.05,1.93s-0.62,0.84-0.89,1.05
			c-0.27,0.21-0.56,0.31-0.87,0.31c-0.31,0-0.59-0.13-0.82-0.4c-0.46-0.53-0.84-1.55-1.14-3.04c-0.24-1.2-0.36-2.24-0.36-3.12
			c0-0.68,0.08-1.23,0.23-1.64s0.4-0.71,0.73-0.9s0.76-0.29,1.3-0.29c0.28,0,0.48,0.05,0.61,0.15s0.21,0.29,0.26,0.59
			s0.07,0.74,0.07,1.33c0,1.08,0.05,2.1,0.16,3.06c0.01,0.05,0.05,0.31,0.1,0.78h0.05c0.05-0.1,0.08-0.18,0.11-0.23
			s0.05-0.12,0.08-0.18s0.05-0.11,0.07-0.16s0.05-0.12,0.09-0.21c0.34-0.78,0.71-1.68,1.08-2.7c0.44-1.17,0.74-1.88,0.9-2.13
			c0.04-0.06,0.11-0.12,0.19-0.2c0.31-0.23,0.76-0.34,1.34-0.34c0.31,0,0.53,0.06,0.68,0.17s0.25,0.3,0.31,0.57
			c0.05,0.27,0.09,0.71,0.1,1.32c0,0.49,0.06,1.17,0.17,2.05s0.24,1.65,0.38,2.34c0.04,0.23,0.14,0.68,0.29,1.34h0.05
			c0.14-0.43,0.24-0.77,0.29-1.01c0.19-0.83,0.28-2.02,0.28-3.57v-0.44c0-0.46,0.04-0.83,0.13-1.11s0.23-0.53,0.45-0.76
			c0.23-0.23,0.49-0.42,0.79-0.56s0.56-0.22,0.79-0.22c0.27,0,0.46,0.11,0.57,0.32s0.17,0.56,0.17,1.03c0,1.07-0.22,2.4-0.66,3.99
			c-0.38,1.36-0.89,2.61-1.51,3.76c-0.2,0.36-0.4,0.65-0.58,0.88c-0.19,0.23-0.38,0.39-0.59,0.48c-0.2,0.09-0.43,0.14-0.69,0.14
			c-0.92,0-1.68-0.59-2.27-1.78c-0.18-0.36-0.33-0.78-0.47-1.24c-0.14-0.46-0.25-1-0.35-1.61c-0.03-0.1-0.06-0.32-0.08-0.65H312.78z
			"/>
		<path class="st3" d="M327.17,196.35v0.04l-0.04-0.04c-0.61,0.71-1.16,1.29-1.67,1.74s-0.97,0.79-1.4,1.02s-0.82,0.34-1.18,0.34
			c-0.73,0-1.33-0.24-1.81-0.73s-0.71-1.11-0.71-1.86c0-0.46,0.12-1.01,0.35-1.64s0.56-1.25,0.97-1.86
			c0.68-0.99,1.54-1.83,2.58-2.52c1.07-0.71,2.1-1.06,3.09-1.06c0.83,0,1.52,0.17,2.06,0.51s0.81,0.77,0.81,1.29
			c0,0.38-0.13,0.79-0.4,1.22c0.35,0,0.57,0.04,0.66,0.11s0.14,0.25,0.14,0.52c0-0.03-0.02,0.11-0.05,0.4
			c-0.04,0.64-0.06,1.25-0.06,1.81c0,0.29,0,0.51,0.01,0.66s0.02,0.32,0.04,0.52s0.04,0.35,0.06,0.47c0.05,0.31,0.14,0.61,0.25,0.91
			c-0.39,0.38-0.76,0.67-1.12,0.84s-0.72,0.27-1.09,0.27c-1,0-1.5-0.84-1.5-2.52C327.15,196.62,327.16,196.46,327.17,196.35z
			 M327.76,194.12l-0.19,0.06c-0.47,0.13-0.81,0.2-1.02,0.2c-0.25,0-0.38-0.06-0.38-0.2c0-0.05,0.05-0.17,0.16-0.36
			c0.36-0.55,0.55-1.07,0.55-1.56c0-0.28-0.05-0.54-0.15-0.77s-0.21-0.35-0.32-0.35c-0.1,0-0.26,0.11-0.48,0.33
			c-0.61,0.66-1.09,1.33-1.44,2.02s-0.53,1.31-0.53,1.85c0,0.36,0.07,0.65,0.22,0.89s0.33,0.35,0.55,0.35c0.19,0,0.54-0.2,1.06-0.61
			s1.1-0.94,1.74-1.6l0.26-0.21L327.76,194.12z"/>
		<path class="st3" d="M337.77,192.5l0.13-0.42c0.17-0.65,0.43-1.15,0.77-1.5c0.22-0.22,0.48-0.4,0.76-0.55
			c0.29-0.14,0.55-0.21,0.78-0.21c0.43,0,0.65,0.18,0.65,0.55c0,0.18-0.06,0.47-0.18,0.85s-0.27,0.82-0.46,1.3
			c-0.19,0.48-0.42,1.02-0.67,1.6c-0.26,0.58-0.54,1.18-0.86,1.79c-0.57,1.16-1.14,2.14-1.72,2.94c-0.42,0.57-0.84,1.08-1.27,1.52
			c-0.43,0.44-0.88,0.84-1.35,1.19s-0.92,0.62-1.34,0.8c-0.42,0.18-0.81,0.27-1.16,0.27c-0.29,0-0.44-0.13-0.44-0.38
			c0-0.2,0.05-0.44,0.14-0.72c0.09-0.28,0.22-0.54,0.38-0.79c0.18-0.23,0.4-0.44,0.67-0.62c0.34-0.23,0.84-0.5,1.5-0.8
			c-0.39-0.66-0.69-1.18-0.89-1.56s-0.42-0.86-0.67-1.44c-0.54-1.27-0.8-2.42-0.8-3.46c0-0.79,0.1-1.43,0.29-1.92
			c0.18-0.42,0.5-0.72,0.97-0.9c0.38-0.15,0.72-0.22,1.02-0.22c0.42,0,0.71,0.16,0.85,0.48s0.28,1.08,0.39,2.26
			c0.12,1.27,0.31,2.52,0.57,3.76c0.05,0.19,0.1,0.45,0.16,0.78h0.04c0.18-0.38,0.37-0.85,0.58-1.4c0.06-0.16,0.29-0.73,0.68-1.73
			C337.5,193.35,337.66,192.87,337.77,192.5z"/>
		<path class="st3" d="M348.68,189.75l0.04-0.12c0.43-1.21,0.8-2.06,1.11-2.56c0.15-0.23,0.36-0.44,0.63-0.62
			c0.5-0.32,0.97-0.48,1.42-0.48c0.26,0,0.46,0.06,0.6,0.18c0.14,0.12,0.21,0.29,0.21,0.51c0,0.15-0.1,0.46-0.29,0.92
			c-0.33,0.77-0.58,1.49-0.75,2.16c0.11,0.01,0.22,0.03,0.32,0.06c0.39,0.06,0.65,0.13,0.77,0.2c0.12,0.08,0.19,0.21,0.19,0.41
			c0,0.35-0.09,0.66-0.26,0.96s-0.41,0.51-0.69,0.65c-0.21,0.1-0.56,0.16-1.04,0.2c-0.08,0.25-0.18,0.6-0.28,1.05
			c-0.06,0.39-0.12,0.93-0.19,1.62c-0.04,0.25-0.06,0.49-0.06,0.71c0,1.03,0.5,1.54,1.49,1.54h0.06h0.03c0.12,0,0.18,0.02,0.18,0.06
			c0,0.1-0.11,0.28-0.33,0.53c-0.22,0.25-0.47,0.47-0.73,0.65c-0.29,0.2-0.6,0.35-0.94,0.47s-0.65,0.18-0.92,0.18
			c-0.69,0-1.24-0.23-1.67-0.69c-0.43-0.46-0.64-1.07-0.64-1.84c0-0.33,0.06-0.75,0.17-1.28s0.29-1.23,0.53-2.12
			c0.04-0.16,0.08-0.32,0.13-0.49s0.07-0.27,0.08-0.31c-0.26-0.01-0.45-0.06-0.56-0.17s-0.17-0.27-0.17-0.51
			c0-0.41,0.16-0.8,0.47-1.16S348.26,189.84,348.68,189.75z"/>
		<path class="st3" d="M360.23,189.37c0.97,0,1.46,0.11,1.46,0.34c0,0.26-0.22,0.4-0.65,0.42c-0.53,0.03-1.02,0.18-1.47,0.45
			s-0.86,0.63-1.22,1.09s-0.63,0.98-0.83,1.56s-0.3,1.19-0.3,1.84c0,0.71,0.17,1.28,0.5,1.71s0.76,0.65,1.3,0.65
			c0.5,0,0.93-0.25,1.3-0.76s0.56-1.1,0.56-1.78c0-0.55-0.12-1.07-0.35-1.56s-0.57-0.89-1.01-1.23c-0.19-0.15-0.28-0.26-0.28-0.32
			c0-0.09,0.13-0.23,0.4-0.42c0.3-0.2,0.63-0.37,1.01-0.51s0.68-0.21,0.94-0.21c0.29,0,0.57,0.08,0.83,0.23s0.5,0.37,0.7,0.65
			s0.36,0.61,0.46,0.98s0.16,0.76,0.16,1.18c0,0.69-0.13,1.37-0.39,2.05s-0.6,1.22-1.03,1.64c-0.55,0.53-1.21,0.96-1.98,1.29
			s-1.51,0.5-2.2,0.5c-0.68,0-1.35-0.12-2.02-0.35s-1.2-0.54-1.59-0.93c-0.52-0.52-0.78-1.26-0.78-2.22c0-0.76,0.19-1.51,0.56-2.27
			s0.87-1.44,1.51-2.06s1.33-1.1,2.1-1.46S359.45,189.37,360.23,189.37z"/>
		<path class="st3" d="M375.22,189.77c0.5,0.02,0.89,0.16,1.18,0.43s0.44,0.62,0.44,1.07c0,0.39-0.11,0.78-0.34,1.18
			s-0.51,0.72-0.85,0.98s-0.69,0.38-1.03,0.38c-0.2,0-0.3-0.07-0.3-0.21c0-0.05,0.04-0.17,0.12-0.34c0.25-0.43,0.38-0.92,0.38-1.48
			c0-0.28-0.03-0.42-0.1-0.42c-0.09,0-0.22,0.12-0.39,0.35s-0.31,0.51-0.43,0.83c-0.2,0.5-0.37,1.04-0.5,1.6s-0.2,1.04-0.2,1.44
			c0,0.44,0.07,0.79,0.2,1.04s0.32,0.38,0.56,0.38c0.22,0,0.52-0.12,0.89-0.35s0.72-0.52,1.05-0.87c0.14-0.18,0.26-0.26,0.36-0.26
			c0.16,0,0.23,0.09,0.23,0.26c0,0.8-0.31,1.53-0.94,2.18c-0.43,0.43-0.92,0.78-1.48,1.04s-1.06,0.4-1.5,0.4
			c-0.77,0-1.42-0.24-1.93-0.73s-0.77-1.1-0.77-1.85s0.16-1.52,0.49-2.34s0.78-1.59,1.35-2.33s1.22-1.35,1.94-1.85
			c0.52-0.35,1.03-0.53,1.52-0.53H375.22z"/>
		<path class="st3" d="M384.07,189.37c0.97,0,1.46,0.11,1.46,0.34c0,0.26-0.22,0.4-0.65,0.42c-0.53,0.03-1.02,0.18-1.47,0.45
			s-0.86,0.63-1.22,1.09s-0.63,0.98-0.83,1.56s-0.3,1.19-0.3,1.84c0,0.71,0.17,1.28,0.5,1.71s0.76,0.65,1.3,0.65
			c0.5,0,0.93-0.25,1.3-0.76s0.56-1.1,0.56-1.78c0-0.55-0.12-1.07-0.35-1.56s-0.57-0.89-1.01-1.23c-0.19-0.15-0.28-0.26-0.28-0.32
			c0-0.09,0.13-0.23,0.4-0.42c0.3-0.2,0.63-0.37,1.01-0.51s0.68-0.21,0.94-0.21c0.29,0,0.57,0.08,0.83,0.23s0.5,0.37,0.7,0.65
			s0.36,0.61,0.46,0.98s0.16,0.76,0.16,1.18c0,0.69-0.13,1.37-0.39,2.05s-0.6,1.22-1.03,1.64c-0.55,0.53-1.21,0.96-1.98,1.29
			s-1.51,0.5-2.2,0.5c-0.68,0-1.35-0.12-2.02-0.35s-1.2-0.54-1.59-0.93c-0.52-0.52-0.78-1.26-0.78-2.22c0-0.76,0.19-1.51,0.56-2.27
			s0.87-1.44,1.51-2.06s1.33-1.1,2.1-1.46S383.29,189.37,384.07,189.37z"/>
		<path class="st3" d="M392.59,194.05l0.59-0.69c0.59-0.66,1.07-1.15,1.42-1.47c0.35-0.32,0.66-0.56,0.94-0.7s0.56-0.22,0.84-0.22
			c0.46,0,0.79,0.12,0.98,0.37s0.28,0.68,0.28,1.29c0,0.25-0.03,0.63-0.08,1.12c-0.08,0.66-0.12,1.28-0.12,1.86
			c0,0.65,0.03,1.18,0.1,1.58c0.05,0.25,0.11,0.49,0.21,0.74c0.07,0.23,0.1,0.39,0.1,0.48c0,0.1-0.04,0.19-0.12,0.24
			c-0.2,0.18-0.47,0.33-0.8,0.46s-0.61,0.2-0.84,0.2c-0.37,0-0.71-0.13-1.01-0.38s-0.54-0.61-0.7-1.05s-0.25-0.96-0.25-1.52
			c0-0.38,0.04-0.82,0.12-1.34l-0.04-0.04c-0.28,0.31-0.51,0.56-0.68,0.74s-0.33,0.35-0.48,0.52c-0.73,0.83-1.35,1.59-1.86,2.26
			c-0.2,0.26-0.37,0.49-0.54,0.68c-0.24,0.24-0.51,0.36-0.82,0.36c-0.42,0-0.75-0.16-1.02-0.47s-0.39-0.72-0.39-1.21
			c0-0.31,0.04-0.68,0.11-1.12s0.17-0.92,0.29-1.42s0.26-1.02,0.43-1.56s0.35-1.04,0.54-1.52c0.3-0.8,0.66-1.43,1.09-1.88
			c0.29-0.29,0.65-0.44,1.06-0.44c0.68,0,1.02,0.44,1.02,1.32c0,0.64-0.13,1.57-0.4,2.77L392.59,194.05z"/>
		<path class="st3" d="M402.78,194.05l0.59-0.69c0.59-0.66,1.07-1.15,1.42-1.47c0.35-0.32,0.66-0.56,0.94-0.7s0.56-0.22,0.84-0.22
			c0.46,0,0.79,0.12,0.98,0.37s0.28,0.68,0.28,1.29c0,0.25-0.03,0.63-0.08,1.12c-0.08,0.66-0.12,1.28-0.12,1.86
			c0,0.65,0.03,1.18,0.1,1.58c0.05,0.25,0.11,0.49,0.21,0.74c0.07,0.23,0.1,0.39,0.1,0.48c0,0.1-0.04,0.19-0.12,0.24
			c-0.2,0.18-0.47,0.33-0.8,0.46s-0.61,0.2-0.84,0.2c-0.37,0-0.71-0.13-1.01-0.38s-0.54-0.61-0.7-1.05s-0.25-0.96-0.25-1.52
			c0-0.38,0.04-0.82,0.12-1.34l-0.04-0.04c-0.28,0.31-0.51,0.56-0.68,0.74s-0.33,0.35-0.48,0.52c-0.73,0.83-1.35,1.59-1.86,2.26
			c-0.2,0.26-0.37,0.49-0.54,0.68c-0.24,0.24-0.51,0.36-0.82,0.36c-0.42,0-0.75-0.16-1.02-0.47s-0.39-0.72-0.39-1.21
			c0-0.31,0.04-0.68,0.11-1.12s0.17-0.92,0.29-1.42s0.26-1.02,0.43-1.56s0.35-1.04,0.54-1.52c0.3-0.8,0.66-1.43,1.09-1.88
			c0.29-0.29,0.65-0.44,1.06-0.44c0.68,0,1.02,0.44,1.02,1.32c0,0.64-0.13,1.57-0.4,2.77L402.78,194.05z"/>
		<path class="st3" d="M412.18,196.47c0.07,0.39,0.33,0.59,0.76,0.59c0.49,0,1.12-0.29,1.9-0.86c0.46-0.33,0.76-0.5,0.92-0.5
			c0.2,0,0.38,0.05,0.55,0.16s0.25,0.21,0.25,0.32c0,0.12-0.09,0.27-0.28,0.46c-0.34,0.35-0.74,0.68-1.19,1.01s-0.88,0.6-1.3,0.82
			s-0.83,0.39-1.25,0.52s-0.79,0.19-1.11,0.19c-0.81,0-1.46-0.23-1.95-0.7s-0.73-1.09-0.73-1.86c0-0.59,0.13-1.26,0.39-2.01
			s0.6-1.44,1.04-2.09c0.51-0.76,1.15-1.4,1.89-1.9c0.92-0.61,1.81-0.92,2.66-0.92c0.61,0,1.09,0.19,1.44,0.58s0.52,0.92,0.52,1.6
			c0,0.53-0.14,1.08-0.42,1.65s-0.69,1.12-1.23,1.65c-0.44,0.44-0.88,0.79-1.3,1.04s-0.8,0.37-1.12,0.37
			C412.48,196.58,412.33,196.54,412.18,196.47z M412.16,196.16c0.3-0.2,0.53-0.4,0.68-0.61c0.34-0.42,0.61-0.91,0.8-1.46
			c0.15-0.36,0.27-0.76,0.35-1.2s0.13-0.86,0.13-1.24c0-0.36-0.08-0.54-0.22-0.54c-0.21,0-0.53,0.46-0.96,1.38
			c-0.25,0.55-0.46,1.1-0.62,1.66s-0.24,1.02-0.24,1.42C412.08,195.71,412.11,195.9,412.16,196.16z"/>
		<path class="st3" d="M422.68,189.77c0.5,0.02,0.89,0.16,1.18,0.43s0.44,0.62,0.44,1.07c0,0.39-0.11,0.78-0.34,1.18
			s-0.51,0.72-0.85,0.98s-0.69,0.38-1.03,0.38c-0.2,0-0.3-0.07-0.3-0.21c0-0.05,0.04-0.17,0.12-0.34c0.25-0.43,0.38-0.92,0.38-1.48
			c0-0.28-0.03-0.42-0.1-0.42c-0.09,0-0.22,0.12-0.39,0.35s-0.31,0.51-0.43,0.83c-0.2,0.5-0.37,1.04-0.5,1.6s-0.2,1.04-0.2,1.44
			c0,0.44,0.07,0.79,0.2,1.04s0.32,0.38,0.56,0.38c0.22,0,0.52-0.12,0.89-0.35s0.72-0.52,1.05-0.87c0.14-0.18,0.26-0.26,0.36-0.26
			c0.16,0,0.23,0.09,0.23,0.26c0,0.8-0.31,1.53-0.94,2.18c-0.43,0.43-0.92,0.78-1.48,1.04s-1.06,0.4-1.5,0.4
			c-0.77,0-1.42-0.24-1.93-0.73s-0.77-1.1-0.77-1.85s0.16-1.52,0.49-2.34s0.78-1.59,1.35-2.33s1.22-1.35,1.94-1.85
			c0.52-0.35,1.03-0.53,1.52-0.53H422.68z"/>
		<path class="st3" d="M426.88,189.75l0.04-0.12c0.43-1.21,0.8-2.06,1.11-2.56c0.15-0.23,0.36-0.44,0.63-0.62
			c0.5-0.32,0.97-0.48,1.42-0.48c0.26,0,0.46,0.06,0.6,0.18c0.14,0.12,0.21,0.29,0.21,0.51c0,0.15-0.1,0.46-0.29,0.92
			c-0.33,0.77-0.58,1.49-0.75,2.16c0.11,0.01,0.22,0.03,0.32,0.06c0.39,0.06,0.65,0.13,0.77,0.2c0.12,0.08,0.19,0.21,0.19,0.41
			c0,0.35-0.09,0.66-0.26,0.96s-0.41,0.51-0.69,0.65c-0.21,0.1-0.56,0.16-1.04,0.2c-0.08,0.25-0.18,0.6-0.28,1.05
			c-0.06,0.39-0.12,0.93-0.19,1.62c-0.04,0.25-0.06,0.49-0.06,0.71c0,1.03,0.5,1.54,1.49,1.54h0.06h0.03c0.12,0,0.18,0.02,0.18,0.06
			c0,0.1-0.11,0.28-0.33,0.53c-0.22,0.25-0.47,0.47-0.73,0.65c-0.29,0.2-0.6,0.35-0.94,0.47s-0.65,0.18-0.92,0.18
			c-0.69,0-1.24-0.23-1.67-0.69c-0.43-0.46-0.64-1.07-0.64-1.84c0-0.33,0.06-0.75,0.17-1.28s0.29-1.23,0.53-2.12
			c0.04-0.16,0.08-0.32,0.13-0.49s0.07-0.27,0.08-0.31c-0.26-0.01-0.45-0.06-0.56-0.17s-0.17-0.27-0.17-0.51
			c0-0.41,0.16-0.8,0.47-1.16S426.45,189.84,426.88,189.75z"/>
	</g>
</g>
</svg>
