<svg id="Layer_1" data-name="Layer 1" xmlns="http://www.w3.org/2000/svg" viewBox="0 0 101.86 132.98"><defs><style>.cls-1{fill:#fff;}.cls-2{fill:#33aad3;}</style></defs><path class="cls-1" d="M291.58,193.62a36.64,36.64,0,0,1,10.16,1.92,4.45,4.45,0,0,0,1.21.22,11.11,11.11,0,0,0,2.25-.67,3.63,3.63,0,0,1,1.28-.23q2.52,0,5.33,4a13.41,13.41,0,0,1,2.8,7.6,5.21,5.21,0,0,1-1.26,3.55,3.91,3.91,0,0,1-3.07,1.45,4.45,4.45,0,0,1-2.44-.6,41.9,41.9,0,0,1-4.14-3.57q-4.51-4.22-8.88-4.22a5.21,5.21,0,0,0-3.37,1,3.27,3.27,0,0,0-1.26,2.67c0,2.18,1.92,3.83,5.76,4.93a83.28,83.28,0,0,1,10,3.35q9.58,4.66,9.59,13.73A15.84,15.84,0,0,1,309,241.85q-6.71,5.19-17.5,5.19a48.8,48.8,0,0,1-10.16-1.14,24.52,24.52,0,0,1-7.71-2.69c-1.2-.81-2.29-2.56-3.25-5.25a23.24,23.24,0,0,1-1.45-7.88,4.42,4.42,0,0,1,.75-2.79,2.9,2.9,0,0,1,2.37-1.2,3.77,3.77,0,0,1,2.75,1.46,56.22,56.22,0,0,1,3.72,5.31,10.28,10.28,0,0,0,4.42,3.5,14.83,14.83,0,0,0,6.27,1.39,8.7,8.7,0,0,0,4.51-1,3,3,0,0,0,1.73-2.66,3.23,3.23,0,0,0-1.35-2.59,13.55,13.55,0,0,0-4.4-2,59.39,59.39,0,0,1-8.21-3.11,24.69,24.69,0,0,1-5.26-3.55q-6-5.26-5.95-12a14.5,14.5,0,0,1,1.55-6.45,16.05,16.05,0,0,1,4.36-5.44A23.22,23.22,0,0,1,291.58,193.62Z" transform="translate(-246.17 -169.89)"/><path class="cls-2" d="M307.39,216.3q7.23,0,7.23,3a2.18,2.18,0,0,1-.37,1.33,5,5,0,0,1-1.42,1.13,2.43,2.43,0,0,0-1.14,1.46,16.77,16.77,0,0,0-.25,3.67c0,1.08.2,1.74.61,2a2.21,2.21,0,0,0,1.05.28c.47,0,1.58,0,3.33,0a9.92,9.92,0,0,0,3-.25c.39-.17.58-.6.58-1.28a22.49,22.49,0,0,0-.27-4.26,2.37,2.37,0,0,0-1.09-1.65,5,5,0,0,1-1.35-1,1.71,1.71,0,0,1-.32-1.08,2.5,2.5,0,0,1,.72-1.73,3.58,3.58,0,0,1,1.87-1.05,26.3,26.3,0,0,1,6.05-.58,19.09,19.09,0,0,1,6.3.77c1.35.52,2,1.33,2,2.43a2.22,2.22,0,0,1-1.44,2.08,3.14,3.14,0,0,0-1.18.8,3.52,3.52,0,0,0-.44,1.43c-.06.39-.14,2.1-.23,5.15s-.14,5.46-.14,7.25a30.64,30.64,0,0,0,.34,6,2.25,2.25,0,0,0,.42.93,10.64,10.64,0,0,0,1.46.93,1.58,1.58,0,0,1,.88,1.48,2.71,2.71,0,0,1-2.1,2.56,20.53,20.53,0,0,1-6.8.8,17.12,17.12,0,0,1-6.1-.81,2.43,2.43,0,0,1-1.78-2.29,2.27,2.27,0,0,1,1.37-2.07,2.48,2.48,0,0,0,.91-.74,4.87,4.87,0,0,0,.48-1.37,23.14,23.14,0,0,0,.41-4.77c0-1-.14-1.58-.42-1.81a4.36,4.36,0,0,0-2.24-.35,18.43,18.43,0,0,0-5.29.46c-.31.13-.5.49-.58,1.09a23.35,23.35,0,0,0-.14,2.74,7.26,7.26,0,0,0,.75,3.8,4.09,4.09,0,0,0,1.2.95,1.94,1.94,0,0,1,1,1.83c0,1.09-.75,1.91-2.25,2.48a18.59,18.59,0,0,1-6.43.86,20.27,20.27,0,0,1-6.21-.79,3.84,3.84,0,0,1-1.63-1,2,2,0,0,1-.59-1.4,1.73,1.73,0,0,1,.37-1.19,6.31,6.31,0,0,1,1.62-1.06,2.05,2.05,0,0,0,.92-.84,5.47,5.47,0,0,0,.4-1.71,58.49,58.49,0,0,0,.35-7.1c0-.54,0-1.18,0-1.92q-.11-5.56-.1-6.35a6,6,0,0,0-.33-2.63,4.48,4.48,0,0,0-1.89-1.41,1.55,1.55,0,0,1-1-1.46q0-2.34,4.54-3.24A27,27,0,0,1,307.39,216.3Z" transform="translate(-246.17 -169.89)"/><path class="cls-1" d="M285.14,302.86c-3.18,0-4.84-.77-5.57-2.4-.85-1.87.08-3.91,2.76-6.06a13,13,0,0,1,1.83-1.18c4.38-2.37,8.52-8.67,8.56-8.74l.06-.08c2.23-3.15,2.67-5.74,1.31-7.69a5.89,5.89,0,0,0-4.18-2.26c-11.27-1.3-24.09-10.42-24.63-10.81a49.36,49.36,0,0,1-19-36.9c-.11-1.65-.13-3.33-.08-5v-.24c0-.24,0-.48,0-.72a50.91,50.91,0,0,1,101.81,0c0,.12,0,.24,0,.37l0,.32c0,.8.85,19.91-17.34,48.93h0c-17.91,28.57-36.38,31.44-38.12,31.65A46,46,0,0,1,285.14,302.86Zm11.74-15.61c-.44.69-5,7.47-10.32,10.36l-.39.22a51.16,51.16,0,0,0,5.6-.71l.18,0c.15,0,17.49-2.24,34.48-29.33h0C342,242.89,343,225.56,343,222.3l-.08-.15,0-1c0-.12,0-.25,0-.37a45.91,45.91,0,0,0-91.81,0c0,.18,0,.37,0,.56v.5c-.05,1.56,0,3.09.07,4.65v.19c0,.19.08,19.78,17,32.94,0,0,12.24,8.71,22.21,9.86a10.85,10.85,0,0,1,7.7,4.36C299.71,276,301.55,280.65,296.88,287.25Z" transform="translate(-246.17 -169.89)"/></svg>